<mxfile host="app.diagrams.net" modified="2023-09-27T04:52:05.070Z" agent="Mozilla/5.0 (X11; Linux x86_64) AppleWebKit/537.36 (KHTML, like Gecko) Chrome/117.0.0.0 Safari/537.36" version="21.8.2" etag="lWeqzYMNbpV4KxBTFWyX" type="github">
  <diagram name="Strona-1" id="mIdCkDDE6zFMRoVFmAbo">
    <mxGraphModel>
      <root>
        <mxCell id="0" />
        <mxCell id="1" parent="0" />
        <mxCell id="2" value="" style="ellipse;fillColor=strokeColor;" vertex="1" parent="1">
          <mxGeometry x="210" y="8" width="14" height="14" as="geometry" />
        </mxCell>
        <mxCell id="3" value="Home" style="rounded=1;absoluteArcSize=1;arcSize=14;whiteSpace=wrap;strokeWidth=2;" vertex="1" parent="1">
          <mxGeometry x="188" y="72" width="58" height="32" as="geometry" />
        </mxCell>
        <mxCell id="4" value="Login" style="rounded=1;absoluteArcSize=1;arcSize=14;whiteSpace=wrap;strokeWidth=2;" vertex="1" parent="1">
          <mxGeometry x="190" y="154" width="54" height="32" as="geometry" />
        </mxCell>
        <mxCell id="5" value="Dashboard" style="rounded=1;absoluteArcSize=1;arcSize=14;whiteSpace=wrap;strokeWidth=2;" vertex="1" parent="1">
          <mxGeometry x="170" y="236" width="93" height="32" as="geometry" />
        </mxCell>
        <mxCell id="6" value="Profile" style="rounded=1;absoluteArcSize=1;arcSize=14;whiteSpace=wrap;strokeWidth=2;" vertex="1" parent="1">
          <mxGeometry x="22" y="318" width="60" height="32" as="geometry" />
        </mxCell>
        <mxCell id="7" value="Settings" style="rounded=1;absoluteArcSize=1;arcSize=14;whiteSpace=wrap;strokeWidth=2;" vertex="1" parent="1">
          <mxGeometry x="180" y="318" width="73" height="32" as="geometry" />
        </mxCell>
        <mxCell id="8" value="EditProfile" style="rounded=1;absoluteArcSize=1;arcSize=14;whiteSpace=wrap;strokeWidth=2;" vertex="1" parent="1">
          <mxGeometry x="8" y="400" width="88" height="32" as="geometry" />
        </mxCell>
        <mxCell id="9" value="ChangePassword" style="rounded=1;absoluteArcSize=1;arcSize=14;whiteSpace=wrap;strokeWidth=2;" vertex="1" parent="1">
          <mxGeometry x="146" y="400" width="141" height="32" as="geometry" />
        </mxCell>
        <mxCell id="10" value="Logout" style="rounded=1;absoluteArcSize=1;arcSize=14;whiteSpace=wrap;strokeWidth=2;" vertex="1" parent="1">
          <mxGeometry x="312" y="318" width="64" height="32" as="geometry" />
        </mxCell>
        <mxCell id="11" value="" style="ellipse;shape=endState;fillColor=strokeColor;" vertex="1" parent="1">
          <mxGeometry x="337" y="409" width="14" height="14" as="geometry" />
        </mxCell>
        <mxCell id="12" value="" style="curved=1;startArrow=none;;exitX=0.4765625;exitY=1;entryX=0.4943426724137931;entryY=0;" edge="1" parent="1" source="2" target="3">
          <mxGeometry relative="1" as="geometry">
            <Array as="points" />
          </mxGeometry>
        </mxCell>
        <mxCell id="13" value="" style="curved=1;startArrow=none;;exitX=0.4943426724137931;exitY=1;entryX=0.4939236111111111;entryY=0;" edge="1" parent="1" source="3" target="4">
          <mxGeometry relative="1" as="geometry">
            <Array as="points" />
          </mxGeometry>
        </mxCell>
        <mxCell id="14" value="" style="curved=1;startArrow=none;;exitX=0.4939236111111111;exitY=1;entryX=0.5018481182795699;entryY=0;" edge="1" parent="1" source="4" target="5">
          <mxGeometry relative="1" as="geometry">
            <Array as="points" />
          </mxGeometry>
        </mxCell>
        <mxCell id="15" value="" style="curved=1;startArrow=none;;exitX=0.0003360215053763441;exitY=0.8629190093231802;entryX=0.5001953125;entryY=0;" edge="1" parent="1" source="5" target="6">
          <mxGeometry relative="1" as="geometry">
            <Array as="points">
              <mxPoint x="52" y="293" />
            </Array>
          </mxGeometry>
        </mxCell>
        <mxCell id="16" value="" style="curved=1;startArrow=none;;exitX=0.5018481182795699;exitY=1;entryX=0.5023544520547946;entryY=0;" edge="1" parent="1" source="5" target="7">
          <mxGeometry relative="1" as="geometry">
            <Array as="points" />
          </mxGeometry>
        </mxCell>
        <mxCell id="17" value="" style="curved=1;startArrow=none;;exitX=0.5001953125;exitY=1;entryX=0.5001331676136364;entryY=0;" edge="1" parent="1" source="6" target="8">
          <mxGeometry relative="1" as="geometry">
            <Array as="points" />
          </mxGeometry>
        </mxCell>
        <mxCell id="18" value="" style="curved=1;startArrow=none;;exitX=0.5023544520547946;exitY=1;entryX=0.5012189716312057;entryY=0;" edge="1" parent="1" source="7" target="9">
          <mxGeometry relative="1" as="geometry">
            <Array as="points" />
          </mxGeometry>
        </mxCell>
        <mxCell id="19" value="" style="curved=1;startArrow=none;;exitX=1.0033602150537635;exitY=0.9681475304486202;entryX=0.5050048828125;entryY=0;" edge="1" parent="1" source="5" target="10">
          <mxGeometry relative="1" as="geometry">
            <Array as="points">
              <mxPoint x="344" y="293" />
            </Array>
          </mxGeometry>
        </mxCell>
        <mxCell id="20" value="" style="curved=1;startArrow=none;;exitX=0.5050048828125;exitY=1;entryX=0.5228794642857143;entryY=0;" edge="1" parent="1" source="10" target="11">
          <mxGeometry relative="1" as="geometry">
            <Array as="points" />
          </mxGeometry>
        </mxCell>
      </root>
    </mxGraphModel>
  </diagram>
</mxfile>
